<svg width="266" height="27" viewBox="0 0 266 27" fill="none" xmlns="http://www.w3.org/2000/svg">
<path d="M61.6905 13.7C61.6905 12.464 61.9665 11.36 62.5185 10.388C63.0825 9.404 63.8445 8.642 64.8045 8.102C65.7765 7.55 66.8625 7.274 68.0625 7.274C69.4665 7.274 70.6965 7.634 71.7525 8.354C72.8085 9.074 73.5465 10.07 73.9665 11.342H71.0685C70.7805 10.742 70.3725 10.292 69.8445 9.992C69.3285 9.692 68.7285 9.542 68.0445 9.542C67.3125 9.542 66.6585 9.716 66.0825 10.064C65.5185 10.4 65.0745 10.88 64.7505 11.504C64.4385 12.128 64.2825 12.86 64.2825 13.7C64.2825 14.528 64.4385 15.26 64.7505 15.896C65.0745 16.52 65.5185 17.006 66.0825 17.354C66.6585 17.69 67.3125 17.858 68.0445 17.858C68.7285 17.858 69.3285 17.708 69.8445 17.408C70.3725 17.096 70.7805 16.64 71.0685 16.04H73.9665C73.5465 17.324 72.8085 18.326 71.7525 19.046C70.7085 19.754 69.4785 20.108 68.0625 20.108C66.8625 20.108 65.7765 19.838 64.8045 19.298C63.8445 18.746 63.0825 17.984 62.5185 17.012C61.9665 16.04 61.6905 14.936 61.6905 13.7ZM78.9989 11.576C79.3229 11.048 79.7429 10.634 80.2589 10.334C80.7869 10.034 81.3869 9.884 82.0589 9.884V12.53H81.3929C80.6009 12.53 80.0009 12.716 79.5929 13.088C79.1969 13.46 78.9989 14.108 78.9989 15.032V20H76.4789V10.028H78.9989V11.576ZM93.3862 14.798C93.3862 15.158 93.3622 15.482 93.3142 15.77H86.0242C86.0842 16.49 86.3362 17.054 86.7802 17.462C87.2242 17.87 87.7702 18.074 88.4182 18.074C89.3542 18.074 90.0202 17.672 90.4162 16.868H93.1342C92.8462 17.828 92.2942 18.62 91.4782 19.244C90.6622 19.856 89.6602 20.162 88.4722 20.162C87.5122 20.162 86.6482 19.952 85.8802 19.532C85.1242 19.1 84.5302 18.494 84.0982 17.714C83.6782 16.934 83.4682 16.034 83.4682 15.014C83.4682 13.982 83.6782 13.076 84.0982 12.296C84.5182 11.516 85.1062 10.916 85.8622 10.496C86.6182 10.076 87.4882 9.866 88.4722 9.866C89.4202 9.866 90.2662 10.07 91.0102 10.478C91.7662 10.886 92.3482 11.468 92.7562 12.224C93.1762 12.968 93.3862 13.826 93.3862 14.798ZM90.7762 14.078C90.7642 13.43 90.5302 12.914 90.0742 12.53C89.6182 12.134 89.0602 11.936 88.4002 11.936C87.7762 11.936 87.2482 12.128 86.8162 12.512C86.3962 12.884 86.1382 13.406 86.0422 14.078H90.7762ZM94.9376 14.978C94.9376 13.97 95.1356 13.076 95.5316 12.296C95.9396 11.516 96.4856 10.916 97.1696 10.496C97.8656 10.076 98.6396 9.866 99.4916 9.866C100.236 9.866 100.884 10.016 101.436 10.316C102 10.616 102.45 10.994 102.786 11.45V10.028H105.324V20H102.786V18.542C102.462 19.01 102.012 19.4 101.436 19.712C100.872 20.012 100.218 20.162 99.4736 20.162C98.6336 20.162 97.8656 19.946 97.1696 19.514C96.4856 19.082 95.9396 18.476 95.5316 17.696C95.1356 16.904 94.9376 15.998 94.9376 14.978ZM102.786 15.014C102.786 14.402 102.666 13.88 102.426 13.448C102.186 13.004 101.862 12.668 101.454 12.44C101.046 12.2 100.608 12.08 100.14 12.08C99.6716 12.08 99.2396 12.194 98.8436 12.422C98.4476 12.65 98.1236 12.986 97.8716 13.43C97.6316 13.862 97.5116 14.378 97.5116 14.978C97.5116 15.578 97.6316 16.106 97.8716 16.562C98.1236 17.006 98.4476 17.348 98.8436 17.588C99.2516 17.828 99.6836 17.948 100.14 17.948C100.608 17.948 101.046 17.834 101.454 17.606C101.862 17.366 102.186 17.03 102.426 16.598C102.666 16.154 102.786 15.626 102.786 15.014ZM111.079 12.098V16.922C111.079 17.258 111.157 17.504 111.313 17.66C111.481 17.804 111.757 17.876 112.141 17.876H113.311V20H111.727C109.603 20 108.541 18.968 108.541 16.904V12.098H107.353V10.028H108.541V7.562H111.079V10.028H113.311V12.098H111.079ZM119.911 20.162C118.951 20.162 118.087 19.952 117.319 19.532C116.551 19.1 115.945 18.494 115.501 17.714C115.069 16.934 114.853 16.034 114.853 15.014C114.853 13.994 115.075 13.094 115.519 12.314C115.975 11.534 116.593 10.934 117.373 10.514C118.153 10.082 119.023 9.866 119.983 9.866C120.943 9.866 121.813 10.082 122.593 10.514C123.373 10.934 123.985 11.534 124.429 12.314C124.885 13.094 125.113 13.994 125.113 15.014C125.113 16.034 124.879 16.934 124.411 17.714C123.955 18.494 123.331 19.1 122.539 19.532C121.759 19.952 120.883 20.162 119.911 20.162ZM119.911 17.966C120.367 17.966 120.793 17.858 121.189 17.642C121.597 17.414 121.921 17.078 122.161 16.634C122.401 16.19 122.521 15.65 122.521 15.014C122.521 14.066 122.269 13.34 121.765 12.836C121.273 12.32 120.667 12.062 119.947 12.062C119.227 12.062 118.621 12.32 118.129 12.836C117.649 13.34 117.409 14.066 117.409 15.014C117.409 15.962 117.643 16.694 118.111 17.21C118.591 17.714 119.191 17.966 119.911 17.966ZM131.138 20.162C130.322 20.162 129.59 20.018 128.942 19.73C128.294 19.43 127.778 19.028 127.394 18.524C127.022 18.02 126.818 17.462 126.782 16.85H129.32C129.368 17.234 129.554 17.552 129.878 17.804C130.214 18.056 130.628 18.182 131.12 18.182C131.6 18.182 131.972 18.086 132.236 17.894C132.512 17.702 132.65 17.456 132.65 17.156C132.65 16.832 132.482 16.592 132.146 16.436C131.822 16.268 131.3 16.088 130.58 15.896C129.836 15.716 129.224 15.53 128.744 15.338C128.276 15.146 127.868 14.852 127.52 14.456C127.184 14.06 127.016 13.526 127.016 12.854C127.016 12.302 127.172 11.798 127.484 11.342C127.808 10.886 128.264 10.526 128.852 10.262C129.452 9.998 130.154 9.866 130.958 9.866C132.146 9.866 133.094 10.166 133.802 10.766C134.51 11.354 134.9 12.152 134.972 13.16H132.56C132.524 12.764 132.356 12.452 132.056 12.224C131.768 11.984 131.378 11.864 130.886 11.864C130.43 11.864 130.076 11.948 129.824 12.116C129.584 12.284 129.464 12.518 129.464 12.818C129.464 13.154 129.632 13.412 129.968 13.592C130.304 13.76 130.826 13.934 131.534 14.114C132.254 14.294 132.848 14.48 133.316 14.672C133.784 14.864 134.186 15.164 134.522 15.572C134.87 15.968 135.05 16.496 135.062 17.156C135.062 17.732 134.9 18.248 134.576 18.704C134.264 19.16 133.808 19.52 133.208 19.784C132.62 20.036 131.93 20.162 131.138 20.162ZM136.842 14.978C136.842 13.97 137.04 13.076 137.436 12.296C137.844 11.516 138.39 10.916 139.074 10.496C139.77 10.076 140.544 9.866 141.396 9.866C142.14 9.866 142.788 10.016 143.34 10.316C143.904 10.616 144.354 10.994 144.69 11.45V10.028H147.228V20H144.69V18.542C144.366 19.01 143.916 19.4 143.34 19.712C142.776 20.012 142.122 20.162 141.378 20.162C140.538 20.162 139.77 19.946 139.074 19.514C138.39 19.082 137.844 18.476 137.436 17.696C137.04 16.904 136.842 15.998 136.842 14.978ZM144.69 15.014C144.69 14.402 144.57 13.88 144.33 13.448C144.09 13.004 143.766 12.668 143.358 12.44C142.95 12.2 142.512 12.08 142.044 12.08C141.576 12.08 141.144 12.194 140.748 12.422C140.352 12.65 140.028 12.986 139.776 13.43C139.536 13.862 139.416 14.378 139.416 14.978C139.416 15.578 139.536 16.106 139.776 16.562C140.028 17.006 140.352 17.348 140.748 17.588C141.156 17.828 141.588 17.948 142.044 17.948C142.512 17.948 142.95 17.834 143.358 17.606C143.766 17.366 144.09 17.03 144.33 16.598C144.57 16.154 144.69 15.626 144.69 15.014ZM159.464 10.028V20H156.926V18.74C156.602 19.172 156.176 19.514 155.648 19.766C155.132 20.006 154.568 20.126 153.956 20.126C153.176 20.126 152.486 19.964 151.886 19.64C151.286 19.304 150.812 18.818 150.464 18.182C150.128 17.534 149.96 16.766 149.96 15.878V10.028H152.48V15.518C152.48 16.31 152.678 16.922 153.074 17.354C153.47 17.774 154.01 17.984 154.694 17.984C155.39 17.984 155.936 17.774 156.332 17.354C156.728 16.922 156.926 16.31 156.926 15.518V10.028H159.464ZM164.83 11.576C165.154 11.048 165.574 10.634 166.09 10.334C166.618 10.034 167.218 9.884 167.89 9.884V12.53H167.224C166.432 12.53 165.832 12.716 165.424 13.088C165.028 13.46 164.83 14.108 164.83 15.032V20H162.31V10.028H164.83V11.576ZM179.361 10.028V20H176.823V18.74C176.499 19.172 176.073 19.514 175.545 19.766C175.029 20.006 174.465 20.126 173.853 20.126C173.073 20.126 172.383 19.964 171.783 19.64C171.183 19.304 170.709 18.818 170.361 18.182C170.025 17.534 169.857 16.766 169.857 15.878V10.028H172.377V15.518C172.377 16.31 172.575 16.922 172.971 17.354C173.367 17.774 173.907 17.984 174.591 17.984C175.287 17.984 175.833 17.774 176.229 17.354C176.625 16.922 176.823 16.31 176.823 15.518V10.028H179.361ZM186.024 20.162C185.208 20.162 184.476 20.018 183.828 19.73C183.18 19.43 182.664 19.028 182.28 18.524C181.908 18.02 181.704 17.462 181.668 16.85H184.206C184.254 17.234 184.44 17.552 184.764 17.804C185.1 18.056 185.514 18.182 186.006 18.182C186.486 18.182 186.858 18.086 187.122 17.894C187.398 17.702 187.536 17.456 187.536 17.156C187.536 16.832 187.368 16.592 187.032 16.436C186.708 16.268 186.186 16.088 185.466 15.896C184.722 15.716 184.11 15.53 183.63 15.338C183.162 15.146 182.754 14.852 182.406 14.456C182.07 14.06 181.902 13.526 181.902 12.854C181.902 12.302 182.058 11.798 182.37 11.342C182.694 10.886 183.15 10.526 183.738 10.262C184.338 9.998 185.04 9.866 185.844 9.866C187.032 9.866 187.98 10.166 188.688 10.766C189.396 11.354 189.786 12.152 189.858 13.16H187.446C187.41 12.764 187.242 12.452 186.942 12.224C186.654 11.984 186.264 11.864 185.772 11.864C185.316 11.864 184.962 11.948 184.71 12.116C184.47 12.284 184.35 12.518 184.35 12.818C184.35 13.154 184.518 13.412 184.854 13.592C185.19 13.76 185.712 13.934 186.42 14.114C187.14 14.294 187.734 14.48 188.202 14.672C188.67 14.864 189.072 15.164 189.408 15.572C189.756 15.968 189.936 16.496 189.948 17.156C189.948 17.732 189.786 18.248 189.462 18.704C189.15 19.16 188.694 19.52 188.094 19.784C187.506 20.036 186.816 20.162 186.024 20.162ZM199.422 21.8H198.162V5.78H199.422V21.8ZM217.623 11.702L216.921 15.032H219.495V16.148H216.687L215.859 20H214.653L215.481 16.148H211.485L210.657 20H209.451L210.279 16.148H207.417V15.032H210.513L211.215 11.702H208.407V10.586H211.467L212.295 6.68H213.501L212.673 10.586H216.669L217.497 6.68H218.703L217.875 10.586H220.485V11.702H217.623ZM216.417 11.702H212.421L211.719 15.032H215.715L216.417 11.702ZM230.556 7.418V8.462H227.064V20H225.804V8.462H222.294V7.418H230.556ZM232.33 15.068C232.33 14.06 232.528 13.178 232.924 12.422C233.332 11.654 233.89 11.066 234.598 10.658C235.318 10.238 236.128 10.028 237.028 10.028C237.964 10.028 238.768 10.244 239.44 10.676C240.124 11.108 240.616 11.66 240.916 12.332V10.172H242.176V20H240.916V17.822C240.604 18.494 240.106 19.052 239.422 19.496C238.75 19.928 237.946 20.144 237.01 20.144C236.122 20.144 235.318 19.934 234.598 19.514C233.89 19.094 233.332 18.5 232.924 17.732C232.528 16.964 232.33 16.076 232.33 15.068ZM240.916 15.086C240.916 14.294 240.754 13.598 240.43 12.998C240.106 12.398 239.662 11.936 239.098 11.612C238.546 11.288 237.934 11.126 237.262 11.126C236.566 11.126 235.942 11.282 235.39 11.594C234.838 11.906 234.4 12.362 234.076 12.962C233.764 13.55 233.608 14.252 233.608 15.068C233.608 15.872 233.764 16.58 234.076 17.192C234.4 17.792 234.838 18.254 235.39 18.578C235.942 18.89 236.566 19.046 237.262 19.046C237.934 19.046 238.546 18.884 239.098 18.56C239.662 18.236 240.106 17.774 240.43 17.174C240.754 16.574 240.916 15.878 240.916 15.086ZM249.534 10.028C250.458 10.028 251.262 10.244 251.946 10.676C252.63 11.108 253.122 11.654 253.422 12.314V10.172H254.682V20.252C254.682 21.152 254.484 21.95 254.088 22.646C253.704 23.342 253.164 23.876 252.468 24.248C251.772 24.632 250.98 24.824 250.092 24.824C248.832 24.824 247.782 24.524 246.942 23.924C246.114 23.324 245.598 22.508 245.394 21.476H246.636C246.852 22.16 247.26 22.706 247.86 23.114C248.472 23.522 249.216 23.726 250.092 23.726C250.728 23.726 251.298 23.588 251.802 23.312C252.306 23.048 252.702 22.652 252.99 22.124C253.278 21.596 253.422 20.972 253.422 20.252V17.822C253.11 18.494 252.612 19.052 251.928 19.496C251.256 19.928 250.458 20.144 249.534 20.144C248.634 20.144 247.824 19.934 247.104 19.514C246.396 19.094 245.838 18.5 245.43 17.732C245.034 16.964 244.836 16.076 244.836 15.068C244.836 14.06 245.034 13.178 245.43 12.422C245.838 11.654 246.396 11.066 247.104 10.658C247.824 10.238 248.634 10.028 249.534 10.028ZM253.422 15.086C253.422 14.294 253.26 13.598 252.936 12.998C252.612 12.398 252.168 11.936 251.604 11.612C251.052 11.288 250.44 11.126 249.768 11.126C249.072 11.126 248.448 11.282 247.896 11.594C247.344 11.906 246.906 12.362 246.582 12.962C246.27 13.55 246.114 14.252 246.114 15.068C246.114 15.872 246.27 16.58 246.582 17.192C246.906 17.792 247.344 18.254 247.896 18.578C248.448 18.89 249.072 19.046 249.768 19.046C250.44 19.046 251.052 18.884 251.604 18.56C252.168 18.236 252.612 17.774 252.936 17.174C253.26 16.574 253.422 15.878 253.422 15.086ZM261.303 20.144C260.175 20.144 259.251 19.886 258.531 19.37C257.823 18.842 257.427 18.128 257.343 17.228H258.639C258.699 17.78 258.957 18.23 259.413 18.578C259.881 18.914 260.505 19.082 261.285 19.082C261.969 19.082 262.503 18.92 262.887 18.596C263.283 18.272 263.481 17.87 263.481 17.39C263.481 17.054 263.373 16.778 263.157 16.562C262.941 16.346 262.665 16.178 262.329 16.058C262.005 15.926 261.561 15.788 260.997 15.644C260.265 15.452 259.671 15.26 259.215 15.068C258.759 14.876 258.369 14.594 258.045 14.222C257.733 13.838 257.577 13.328 257.577 12.692C257.577 12.212 257.721 11.768 258.009 11.36C258.297 10.952 258.705 10.628 259.233 10.388C259.761 10.148 260.361 10.028 261.033 10.028C262.089 10.028 262.941 10.298 263.589 10.838C264.237 11.366 264.585 12.098 264.633 13.034H263.373C263.337 12.458 263.109 11.996 262.689 11.648C262.281 11.288 261.717 11.108 260.997 11.108C260.361 11.108 259.845 11.258 259.449 11.558C259.053 11.858 258.855 12.23 258.855 12.674C258.855 13.058 258.969 13.376 259.197 13.628C259.437 13.868 259.731 14.06 260.079 14.204C260.427 14.336 260.895 14.486 261.483 14.654C262.191 14.846 262.755 15.032 263.175 15.212C263.595 15.392 263.955 15.656 264.255 16.004C264.555 16.352 264.711 16.814 264.723 17.39C264.723 17.918 264.579 18.392 264.291 18.812C264.003 19.22 263.601 19.544 263.085 19.784C262.569 20.024 261.975 20.144 261.303 20.144Z" fill="black"/>
<g clip-path="url(#clip0)">
<path d="M16.2153 24.0004L18.4071 22.6445L18.7546 24.0004H16.2153Z" fill="black"/>
<path d="M12.9756 22.292L15.8779 20.957V22.3442L12.9756 22.292Z" fill="black"/>
<path d="M19.0339 23.8795L21.6098 21.4605L20.2722 19.1328L18.6421 22.3696L19.0339 23.8795Z" fill="black"/>
<path d="M23.7256 5.44336L29.6191 12.0161L46.7068 11.8907L23.7256 5.44336Z" fill="black"/>
<path d="M9.11741 11.9492L9.09912 15.1363H12.5004L9.11741 11.9492Z" fill="black"/>
<path d="M11.1052 16.9383L9.125 15.4336H11.0529L11.1052 16.9383Z" fill="black"/>
<path d="M21.7849 21.1712L17.626 13.9297L23.112 16.6126L21.7849 21.1712Z" fill="black"/>
<path d="M43.5488 10.6971L46.9267 11.6454L49.8578 9.91602L43.5488 10.6971Z" fill="black"/>
<path d="M3.00454 9.53556L6.58612 8.35215L7.09032 5.26953L2.12939 9.15154L3.00454 9.53556Z" fill="black"/>
<path d="M16.1733 22.3434L19.6609 18.0695L18.1457 15.4336H16.1733V22.3434Z" fill="black"/>
<path d="M17.6885 13.6323L23.3809 16.4145L29.2535 12.0518L23.3913 5.51562L19.0913 7.16665L17.6885 13.6323Z" fill="black"/>
<path d="M0 4.15102L5.81517 5.89087L7.13182 4.85898L7.74312 1.26172H1.47861L0 4.15102Z" fill="black"/>
<path d="M8.04088 1.26172L6.89404 8.29688L9.11196 11.5388L13.0305 7.73783L11.2802 4.37568L8.04088 1.26172Z" fill="black"/>
<path d="M12.9313 15.1361H17.9758L17.3122 13.9814L18.7647 7.27539L13.4929 7.6986L9.32617 11.74L12.9313 15.1361Z" fill="black"/>
<path d="M4.56137 0.963971H3.10889L3.8717 0L4.56137 0.963971Z" fill="black"/>
</g>
<defs>
<clipPath id="clip0">
<rect width="49.8574" height="24" fill="white"/>
</clipPath>
</defs>
</svg>
